<?xml version="1.0" standalone="no"?>
<!DOCTYPE svg PUBLIC "-//W3C//DTD SVG 20010904//EN"
 "http://www.w3.org/TR/2001/REC-SVG-20010904/DTD/svg10.dtd">
<svg version="1.0" xmlns="http://www.w3.org/2000/svg"
 width="400.000000pt" height="400.000000pt" viewBox="0 0 400.000000 400.000000"
 preserveAspectRatio="xMidYMid meet">
<metadata>
Created by potrace 1.14, written by Peter Selinger 2001-2017
</metadata>
<g transform="translate(0.000000,400.000000) scale(0.100000,-0.100000)"
fill="#000000" stroke="none">
<path d="M0 3351 c0 -510 3 -650 13 -654 10 -4 10 -6 0 -6 -17 -1 -18 -91 -1
-91 9 0 9 -3 0 -12 -9 -9 -12 -104 -12 -365 l0 -354 23 2 c12 1 31 1 42 0 30
-2 -2 -21 -37 -21 -26 0 -28 -3 -28 -44 0 -34 4 -46 17 -49 17 -4 17 -5 1 -6
-17 -1 -18 -50 -18 -876 l0 -875 1335 0 1335 0 0 25 c0 20 9 30 43 45 23 11
52 27 65 36 26 20 30 4 7 -36 -18 -31 -19 -48 -3 -32 19 19 28 14 28 -13 l0
-25 595 0 595 0 0 759 0 760 -33 4 -32 4 33 1 32 2 0 355 c0 269 -3 355 -12
355 -9 0 -9 3 0 12 9 9 12 218 12 880 l0 868 -2000 0 -2000 0 0 -649z m1700
309 c0 -5 -4 -10 -10 -10 -5 0 -10 5 -10 10 0 6 5 10 10 10 6 0 10 -4 10 -10z
m-267 -44 c17 -13 25 -52 8 -42 -4 3 -6 -6 -3 -21 3 -18 1 -24 -7 -19 -6 4
-11 14 -11 22 0 19 -19 18 -27 -3 -6 -14 -7 -14 -14 3 -4 11 -5 32 -2 47 6 30
27 35 56 13z m-120 -39 c-9 -16 -26 12 -18 30 7 17 8 17 15 -2 4 -11 5 -24 3
-28z m237 13 c0 -5 -4 -10 -10 -10 -5 0 -10 5 -10 10 0 6 5 10 10 10 6 0 10
-4 10 -10z m-343 -56 c11 -17 11 -23 -1 -39 -13 -18 -14 -17 -31 8 -18 28 -14
62 7 55 6 -2 17 -13 25 -24z m143 6 c0 -5 9 -18 21 -29 22 -20 19 -41 -6 -41
-20 0 -47 44 -39 64 7 17 24 22 24 6z m-190 -65 c0 -8 -4 -15 -10 -15 -5 0
-10 7 -10 15 0 8 5 15 10 15 6 0 10 -7 10 -15z m-587 -92 c-7 -2 -19 -2 -25 0
-7 3 -2 5 12 5 14 0 19 -2 13 -5z m94 1 c-3 -3 -12 -4 -19 -1 -8 3 -5 6 6 6
11 1 17 -2 13 -5z m2156 -300 c22 -23 40 -54 47 -83 6 -25 17 -49 23 -53 8 -5
7 -14 -2 -32 -11 -19 -11 -29 -2 -39 6 -8 9 -21 5 -30 -5 -13 -8 -13 -25 4
-24 24 -68 25 -75 2 -3 -10 -10 -29 -15 -42 l-10 -23 -23 23 c-13 13 -26 31
-30 39 -7 18 0 -45 10 -77 3 -13 2 -23 -2 -23 -9 0 -19 19 -50 100 -10 25 -24
51 -32 59 -7 8 -20 24 -29 37 -8 13 -22 24 -29 24 -21 0 -17 -37 7 -53 11 -8
22 -27 23 -41 2 -14 15 -44 30 -66 14 -22 26 -46 26 -55 0 -18 20 -55 37 -70
23 -19 63 -239 63 -346 0 -48 7 -96 19 -130 10 -31 22 -75 26 -100 3 -24 13
-58 20 -75 16 -34 22 -134 11 -153 -4 -7 -3 -18 4 -26 9 -10 7 -16 -7 -23 -17
-10 -17 -11 1 -31 12 -13 16 -26 11 -38 -4 -10 -9 -44 -9 -75 -2 -47 -6 -60
-26 -76 -20 -16 -22 -22 -12 -35 16 -19 6 -64 -16 -76 -15 -9 -15 -11 2 -29
13 -16 15 -25 7 -40 -7 -14 -6 -25 6 -42 9 -12 12 -25 7 -29 -5 -3 -10 -24
-11 -46 -2 -22 -8 -50 -15 -63 -9 -17 -9 -25 0 -34 19 -19 14 -26 -19 -33 -18
-4 -27 -10 -22 -14 5 -3 12 -14 16 -24 3 -9 13 -17 22 -17 8 0 15 -4 15 -9 0
-17 -54 -52 -71 -48 -9 3 -23 1 -30 -3 -10 -7 -10 -11 0 -24 17 -21 -2 -46
-34 -46 -13 0 -26 -7 -29 -16 -7 -19 2 -37 15 -29 5 4 9 -3 9 -14 0 -12 -5
-21 -11 -21 -5 0 -8 -4 -5 -9 3 -5 0 -14 -8 -20 -10 -9 -15 -8 -20 4 -3 8 -12
15 -21 15 -17 0 -20 -17 -4 -22 9 -3 8 -10 -1 -25 -11 -17 -20 -20 -47 -16
-21 4 -33 2 -33 -6 0 -19 -17 -12 -23 10 -3 12 -10 18 -15 15 -6 -3 -8 -16 -4
-28 3 -14 2 -19 -6 -14 -7 4 -12 13 -12 21 0 7 -7 15 -15 19 -8 3 -15 11 -15
18 0 15 -80 88 -97 88 -7 0 -16 6 -20 14 -4 7 -18 18 -31 25 -20 10 -23 9 -34
-14 -10 -21 -18 -25 -58 -25 -25 0 -50 4 -55 8 -6 5 -36 14 -67 21 -60 13 -93
5 -111 -25 -12 -20 -51 -17 -89 6 -44 27 -72 25 -92 -5 -27 -42 -52 -49 -106
-31 -27 9 -52 16 -55 16 -3 0 -13 -16 -21 -35 -14 -35 -28 -44 -38 -26 -3 5
-15 7 -26 4 -14 -4 -20 0 -20 11 0 9 -5 16 -12 16 -6 0 -20 7 -30 17 -14 12
-18 13 -18 2 0 -10 -4 -9 -17 4 -13 13 -15 20 -5 29 17 17 15 41 -2 35 -21 -8
-60 38 -53 63 3 11 1 20 -5 20 -5 0 -16 7 -24 15 -11 11 -20 12 -34 5 -29 -15
-40 -12 -40 13 -1 27 -21 55 -36 50 -19 -6 -38 25 -25 40 15 19 3 28 -25 21
-24 -6 -34 9 -14 21 20 12 10 26 -17 23 -21 -2 -28 2 -33 22 -4 14 -16 45 -27
70 -21 45 -47 141 -59 215 -4 22 -11 46 -16 52 -6 7 -7 21 -3 30 5 10 7 26 6
36 -3 23 24 22 41 -2 7 -10 29 -21 48 -25 48 -9 49 -9 101 -1 41 7 49 4 80
-22 19 -17 44 -35 56 -42 33 -17 114 -13 154 7 60 31 124 52 165 56 22 1 49 8
61 15 24 12 48 82 39 108 -9 23 14 96 35 111 27 19 14 39 -45 69 -51 27 -100
36 -278 49 -68 5 -95 3 -127 -10 -23 -9 -54 -16 -69 -16 -15 0 -56 -11 -92
-24 -126 -46 -128 -47 -125 -76 1 -15 5 -32 9 -38 3 -6 -1 -15 -9 -20 -9 -5
-17 -24 -18 -47 -3 -44 -27 -62 -27 -20 0 14 -5 36 -12 48 -6 12 -10 37 -10
56 1 19 -5 48 -13 65 -9 18 -17 65 -20 105 -3 41 -10 92 -16 114 -9 36 -8 43
7 54 10 7 26 13 37 13 10 0 17 5 14 13 -2 6 -15 11 -29 9 -21 -3 -26 2 -32 29
-3 17 -6 44 -6 60 0 15 -4 31 -10 34 -6 4 -4 15 6 30 9 13 13 29 10 34 -9 14
14 151 31 186 23 46 84 105 109 105 13 0 33 4 46 9 13 5 73 10 133 12 61 2
124 9 142 16 18 7 65 13 104 13 82 0 145 15 175 42 11 10 27 18 36 18 9 0 21
7 28 14 6 8 35 19 63 25 188 37 224 45 242 57 11 8 27 14 35 14 9 0 34 13 56
29 26 19 63 34 105 42 72 14 170 14 178 0 3 -5 25 -14 47 -20 27 -7 43 -18 47
-31 5 -18 7 -19 35 -4 40 19 77 10 105 -28 21 -28 21 -28 29 -7 7 18 10 19 25
8 15 -13 16 -11 9 16 -4 17 -10 56 -13 88 -5 59 7 73 36 45 10 -11 14 -10 22
5 14 24 22 22 62 -19z m607 -44 c0 -5 -9 -10 -19 -10 -11 0 -23 5 -26 10 -4 6
5 10 19 10 14 0 26 -4 26 -10z m-2794 -42 c-18 -10 -39 -2 -31 12 3 4 15 6 26
3 19 -5 19 -7 5 -15z m-156 2 c0 -5 -4 -10 -10 -10 -5 0 -10 5 -10 10 0 6 5
10 10 10 6 0 10 -4 10 -10z m0 -110 c0 -5 -7 -10 -15 -10 -8 0 -15 5 -15 10 0
6 7 10 15 10 8 0 15 -4 15 -10z m160 0 c0 -5 -9 -10 -20 -10 -11 0 -20 5 -20
10 0 6 9 10 20 10 11 0 20 -4 20 -10z m-510 -40 c0 -5 -2 -10 -4 -10 -3 0 -8
5 -11 10 -3 6 -1 10 4 10 6 0 11 -4 11 -10z m2700 -9 c0 -10 7 -24 15 -31 7
-6 17 -33 21 -58 4 -26 10 -49 14 -52 10 -6 0 -60 -10 -60 -5 0 -12 9 -15 20
-4 11 -11 18 -16 15 -12 -8 -12 -52 1 -60 6 -3 10 -15 10 -26 0 -11 -4 -17
-10 -14 -5 3 -10 13 -10 20 0 8 -14 43 -31 77 -32 67 -33 114 -4 138 8 7 15
21 15 31 0 11 5 19 10 19 6 0 10 -8 10 -19z m495 -50 c3 -5 1 -12 -5 -16 -5
-3 -10 1 -10 9 0 18 6 21 15 7z m-2890 -52 c-8 -13 -55 -11 -55 2 0 5 4 8 8 5
4 -2 14 -1 22 4 16 10 33 3 25 -11z m2630 -47 c0 -18 -20 -15 -23 4 -3 10 1
15 10 12 7 -3 13 -10 13 -16z m-2535 -22 c0 -5 -5 -10 -11 -10 -5 0 -7 5 -4
10 3 6 8 10 11 10 2 0 4 -4 4 -10z m2800 -11 c0 -5 -4 -9 -10 -9 -5 0 -10 7
-10 16 0 8 5 12 10 9 6 -3 10 -10 10 -16z m-228 -17 c10 -16 14 -38 11 -55 -4
-21 0 -34 16 -48 11 -11 21 -31 21 -45 0 -14 5 -35 11 -46 9 -18 9 -20 -4 -15
-23 9 -29 -20 -11 -55 15 -30 10 -56 -6 -28 -4 8 -22 32 -39 54 -17 21 -31 42
-32 45 0 3 -2 34 -3 69 -1 34 -8 68 -14 74 -17 17 -15 38 3 38 8 0 15 9 15 20
0 28 13 25 32 -8z m-2542 -22 c0 -5 -4 -10 -10 -10 -5 0 -10 5 -10 10 0 6 5
10 10 10 6 0 10 -4 10 -10z m2348 -12 c7 -7 12 -19 12 -27 0 -11 -4 -10 -20 4
-21 19 -26 35 -12 35 4 0 13 -5 20 -12z m-2821 -14 c-3 -3 -12 -4 -19 -1 -8 3
-5 6 6 6 11 1 17 -2 13 -5z m58 -4 c-3 -5 -10 -10 -16 -10 -5 0 -9 5 -9 10 0
6 7 10 16 10 8 0 12 -4 9 -10z m408 -76 c16 -6 11 -54 -7 -66 -17 -11 -24 0
-24 37 0 35 4 40 31 29z m112 -12 c-3 -3 -17 -8 -30 -9 -31 -5 -33 14 -2 19
25 4 41 -1 32 -10z m2660 8 c3 -5 1 -10 -4 -10 -6 0 -11 5 -11 10 0 6 2 10 4
10 3 0 8 -4 11 -10z m-75 -36 c0 -9 -5 -14 -12 -12 -18 6 -21 28 -4 28 9 0 16
-7 16 -16z m-3220 -29 c0 -19 -4 -35 -9 -35 -5 0 -9 16 -8 35 1 19 5 35 9 35
4 0 8 -16 8 -35z m145 26 c15 -6 9 -8 -23 -9 -24 0 -40 3 -37 9 7 11 32 11 60
0z m210 -11 c0 -9 -6 -13 -15 -11 -8 3 -28 6 -45 7 -55 3 -60 7 -25 14 52 11
85 7 85 -10z m5 -60 c0 -5 -4 -10 -10 -10 -5 0 -10 5 -10 10 0 6 5 10 10 10 6
0 10 -4 10 -10z m147 -4 c7 -5 6 -55 -2 -56 -5 0 -11 11 -13 25 -2 17 -9 25
-23 25 -10 0 -19 5 -19 10 0 8 44 5 57 -4z m151 -4 c3 -9 -7 -12 -39 -10 -57
4 -65 28 -8 25 24 -1 44 -8 47 -15z m2597 0 c0 -18 -20 -15 -23 4 -3 10 1 15
10 12 7 -3 13 -10 13 -16z m105 4 c0 -3 -4 -8 -10 -11 -5 -3 -10 -1 -10 4 0 6
5 11 10 11 6 0 10 -2 10 -4z m-3235 -36 c3 -5 -3 -10 -15 -10 -12 0 -18 5 -15
10 3 6 10 10 15 10 5 0 12 -4 15 -10z m35 0 c0 -5 -5 -10 -11 -10 -5 0 -7 5
-4 10 3 6 8 10 11 10 2 0 4 -4 4 -10z m3050 -17 c0 -16 -3 -39 -7 -52 -6 -23
-7 -23 -14 -5 -14 35 -10 84 6 84 10 0 15 -10 15 -27z m57 5 c-3 -8 -6 -5 -6
6 -1 11 2 17 5 13 3 -3 4 -12 1 -19z m477 13 c3 -5 -9 -11 -27 -14 -36 -5 -50
0 -42 14 8 12 62 12 69 0z m-3527 -7 c-3 -3 -12 -4 -19 -1 -8 3 -5 6 6 6 11 1
17 -2 13 -5z m191 -1 c-10 -2 -28 -2 -40 0 -13 2 -5 4 17 4 22 1 32 -1 23 -4z
m170 -10 c2 -8 -5 -13 -17 -13 -12 0 -21 6 -21 16 0 18 31 15 38 -3z m82 -9
c0 -2 -15 -4 -32 -3 -27 0 -29 2 -13 8 18 8 45 4 45 -5z m-300 -44 c0 -6 -11
-9 -25 -7 -37 5 -42 17 -7 17 18 0 32 -5 32 -10z m250 -4 c0 -19 -21 -26 -44
-14 -10 6 -31 7 -47 4 -27 -5 -45 4 -32 18 3 3 33 6 65 6 43 0 58 -4 58 -14z
m2548 -47 c2 -23 2 -23 -13 -5 -18 24 -20 39 -2 34 6 -3 13 -15 15 -29z
m-2988 11 c0 -5 -4 -10 -10 -10 -5 0 -10 5 -10 10 0 6 5 10 10 10 6 0 10 -4
10 -10z m45 0 c3 -5 -1 -10 -9 -10 -9 0 -16 5 -16 10 0 6 4 10 9 10 6 0 13 -4
16 -10z m175 1 c22 -7 19 -9 -23 -16 -50 -8 -64 -4 -52 14 7 12 37 13 75 2z
m3310 -1 c0 -5 -4 -10 -10 -10 -5 0 -10 5 -10 10 0 6 5 10 10 10 6 0 10 -4 10
-10z m-3599 -55 c0 -15 -40 -18 -56 -5 -8 7 -13 16 -10 20 7 11 66 -3 66 -15z
m3019 16 c0 -5 -7 -11 -15 -15 -9 -3 -15 0 -15 9 0 8 7 15 15 15 8 0 15 -4 15
-9z m393 -8 c-13 -2 -33 -2 -45 0 -13 2 -3 4 22 4 25 0 35 -2 23 -4z m-3103
-33 c0 -5 -4 -10 -10 -10 -5 0 -10 5 -10 10 0 6 5 10 10 10 6 0 10 -4 10 -10z
m60 0 c0 -5 -2 -10 -4 -10 -3 0 -8 5 -11 10 -3 6 -1 10 4 10 6 0 11 -4 11 -10z
m-350 -30 c10 -7 -8 -9 -60 -9 -59 1 -68 3 -40 9 52 11 83 11 100 0z m160 -11
c0 -5 -7 -9 -15 -9 -15 0 -20 12 -9 23 8 8 24 -1 24 -14z m75 1 c3 -5 1 -10
-4 -10 -6 0 -11 5 -11 10 0 6 2 10 4 10 3 0 8 -4 11 -10z m220 1 c3 -5 1 -12
-5 -16 -5 -3 -10 1 -10 9 0 18 6 21 15 7z m48 -27 c-7 -19 -23 -7 -23 18 0 17
3 18 14 8 8 -6 12 -18 9 -26z m-146 14 c-4 -14 -62 -12 -87 3 -10 5 3 8 38 9
39 0 52 -3 49 -12z m3216 -29 c-6 -6 -18 -6 -28 -3 -18 7 -18 8 1 14 23 9 39
1 27 -11z m-3683 1 c0 -5 -4 -10 -10 -10 -5 0 -10 5 -10 10 0 6 5 10 10 10 6
0 10 -4 10 -10z m600 -34 c0 -3 -4 -8 -10 -11 -5 -3 -10 -1 -10 4 0 6 5 11 10
11 6 0 10 -2 10 -4z m-243 -36 c15 0 23 -3 19 -7 -9 -10 -86 -12 -86 -3 0 13
14 21 28 15 7 -3 25 -5 39 -5z m60 -16 c-9 -9 -28 6 -21 18 4 6 10 6 17 -1 6
-6 8 -13 4 -17z m90 16 c25 0 6 -13 -22 -16 -17 -2 -25 2 -25 13 0 10 6 13 16
9 9 -3 23 -6 31 -6z m83 -25 c0 -3 -8 -32 -17 -66 -14 -51 -15 -66 -4 -95 10
-28 10 -42 1 -65 -7 -16 -10 -35 -7 -43 3 -8 -5 -19 -19 -26 -13 -8 -24 -17
-24 -22 0 -4 -5 -8 -11 -8 -5 0 -8 3 -6 8 3 4 1 16 -3 27 -4 12 -1 35 7 57 11
27 12 41 4 57 -11 19 -7 62 8 86 3 6 7 21 9 35 4 29 29 60 49 60 7 0 13 -2 13
-5z m-500 -20 c0 -8 -7 -15 -15 -15 -16 0 -20 12 -8 23 11 12 23 8 23 -8z
m-75 -5 c3 -5 -3 -10 -14 -10 -12 0 -21 5 -21 10 0 6 6 10 14 10 8 0 18 -4 21
-10z m156 -3 c-1 -12 -15 -9 -19 4 -3 6 1 10 8 8 6 -3 11 -8 11 -12z m3779 3
c0 -5 -7 -10 -15 -10 -8 0 -15 5 -15 10 0 6 7 10 15 10 8 0 15 -4 15 -10z
m-3640 -14 c0 -3 -4 -8 -10 -11 -5 -3 -10 -1 -10 4 0 6 5 11 10 11 6 0 10 -2
10 -4z m0 -73 c0 -13 -4 -23 -10 -23 -5 0 -10 9 -10 19 0 11 -5 23 -11 27 -8
4 -7 9 2 15 16 10 29 -7 29 -38z m-214 7 c-1 -22 -6 -30 -20 -30 -12 0 -16 5
-13 15 4 8 2 17 -4 20 -14 9 -1 25 20 25 14 0 18 -7 17 -30z m-91 10 c-3 -5
-10 -10 -16 -10 -5 0 -9 5 -9 10 0 6 7 10 16 10 8 0 12 -4 9 -10z m175 0 c0
-5 -2 -10 -4 -10 -3 0 -8 5 -11 10 -3 6 -1 10 4 10 6 0 11 -4 11 -10z m42 -20
c-4 -27 -7 -29 -31 -24 -36 9 -39 14 -14 20 13 4 20 11 16 20 -3 9 2 14 14 14
16 0 19 -5 15 -30z m3487 -5 c5 3 12 1 15 -4 7 -11 -36 -23 -46 -13 -4 4 -5
18 -1 31 l6 25 9 -23 c4 -12 12 -20 17 -16z m-73 -14 c-5 -8 -56 -3 -56 5 0 2
14 4 31 4 16 0 28 -4 25 -9z m310 2 c-10 -10 -46 -11 -46 -1 0 4 12 8 27 8 14
0 23 -3 19 -7z m-3476 -65 c0 -16 -3 -19 -11 -11 -6 6 -8 16 -5 22 11 17 16
13 16 -11z m-190 2 c0 -5 -8 -10 -17 -10 -15 0 -16 2 -3 10 19 12 20 12 20 0z
m3407 -56 c-9 -9 -28 6 -21 18 4 6 10 6 17 -1 6 -6 8 -13 4 -17z m-3559 4 c-3
-7 -13 -13 -23 -13 -10 0 -20 6 -22 13 -3 7 5 12 22 12 17 0 25 -5 23 -12z
m3472 2 c0 -5 -4 -10 -9 -10 -6 0 -13 5 -16 10 -3 6 1 10 9 10 9 0 16 -4 16
-10z m350 0 c0 -12 -8 -12 -35 0 -18 8 -17 9 8 9 15 1 27 -3 27 -9z m-3687 -6
c13 -13 -3 -21 -32 -16 -17 2 -28 8 -25 13 6 10 48 12 57 3z m1252 -4 c13 -21
-123 -68 -190 -66 -38 2 -55 12 -55 36 0 29 36 34 74 11 35 -22 76 -28 76 -11
0 6 6 10 14 10 7 0 19 7 26 15 14 17 46 20 55 5z m-805 -34 c0 -14 5 -28 10
-31 6 -3 10 -14 10 -23 0 -10 -9 -4 -24 18 -13 19 -21 41 -19 47 9 22 23 14
23 -11z m-663 -2 c-3 -3 -12 -4 -19 -1 -8 3 -5 6 6 6 11 1 17 -2 13 -5z m547
-35 c-6 -11 -24 -2 -24 11 0 5 7 7 15 4 8 -4 12 -10 9 -15z m-134 1 c0 -5 -4
-10 -10 -10 -5 0 -10 5 -10 10 0 6 5 10 10 10 6 0 10 -4 10 -10z m-180 -40 c0
-5 -2 -10 -4 -10 -3 0 -8 5 -11 10 -3 6 -1 10 4 10 6 0 11 -4 11 -10z m193 -4
c6 -15 -1 -26 -15 -26 -4 0 -8 9 -8 20 0 23 15 27 23 6z m81 -28 c18 -35 21
-58 7 -58 -13 0 -41 47 -41 70 0 30 16 24 34 -12z m2971 -8 c3 -5 -1 -10 -10
-10 -9 0 -13 5 -10 10 3 6 8 10 10 10 2 0 7 -4 10 -10z m141 -11 c-30 -8 -50
-3 -42 10 3 4 20 5 38 3 l33 -5 -29 -8z m-63 4 c-7 -2 -21 -2 -30 0 -10 3 -4
5 12 5 17 0 24 -2 18 -5z m47 -53 c0 -5 -4 -10 -10 -10 -5 0 -10 5 -10 10 0 6
5 10 10 10 6 0 10 -4 10 -10z m60 -4 c0 -9 -30 -14 -35 -6 -4 6 3 10 14 10 12
0 21 -2 21 -4z m-3453 -12 c-3 -3 -12 -4 -19 -1 -8 3 -5 6 6 6 11 1 17 -2 13
-5z m3118 -74 c3 -5 -1 -10 -9 -10 -9 0 -16 5 -16 10 0 6 4 10 9 10 6 0 13 -4
16 -10z m30 0 c3 -5 1 -10 -4 -10 -6 0 -11 5 -11 10 0 6 2 10 4 10 3 0 8 -4
11 -10z m160 -20 c3 -5 1 -10 -4 -10 -6 0 -11 5 -11 10 0 6 2 10 4 10 3 0 8
-4 11 -10z m183 -7 c2 -8 -6 -13 -22 -13 -28 0 -43 15 -24 23 20 8 41 3 46
-10z m-583 -3 c3 -5 -1 -10 -10 -10 -9 0 -13 5 -10 10 3 6 8 10 10 10 2 0 7
-4 10 -10z m485 0 c0 -5 -4 -10 -9 -10 -6 0 -13 5 -16 10 -3 6 1 10 9 10 9 0
16 -4 16 -10z m260 0 c0 -5 -7 -10 -15 -10 -8 0 -15 5 -15 10 0 6 7 10 15 10
8 0 15 -4 15 -10z m0 -46 c0 -8 -7 -14 -15 -14 -15 0 -21 21 -9 33 10 9 24 -2
24 -19z m-3880 6 c0 -5 -2 -10 -4 -10 -3 0 -8 5 -11 10 -3 6 -1 10 4 10 6 0
11 -4 11 -10z m3437 4 c-3 -3 -12 -4 -19 -1 -8 3 -5 6 6 6 11 1 17 -2 13 -5z
m138 -4 c4 -6 -8 -10 -29 -10 -20 0 -36 5 -36 10 0 6 13 10 29 10 17 0 33 -4
36 -10z m45 0 c0 -5 -5 -10 -11 -10 -5 0 -7 5 -4 10 3 6 8 10 11 10 2 0 4 -4
4 -10z m48 -2 c-6 -18 -28 -21 -28 -4 0 9 7 16 16 16 9 0 14 -5 12 -12z m102
2 c0 -5 -4 -10 -10 -10 -5 0 -10 5 -10 10 0 6 5 10 10 10 6 0 10 -4 10 -10z
m-424 -41 c3 -5 -9 -9 -25 -9 -17 0 -34 0 -38 -1 -4 0 -9 4 -11 9 -4 13 66 13
74 1z m89 1 c3 -5 -3 -10 -15 -10 -12 0 -18 5 -15 10 3 6 10 10 15 10 5 0 12
-4 15 -10z m435 -80 c0 -6 -13 -10 -30 -10 -39 0 -39 14 0 17 17 1 30 -2 30
-7z m-530 -22 c0 -16 -3 -19 -11 -11 -6 6 -8 16 -5 22 11 17 16 13 16 -11z
m-470 -48 c0 -5 -4 -10 -10 -10 -5 0 -10 5 -10 10 0 6 5 10 10 10 6 0 10 -4
10 -10z m50 6 c0 -3 -4 -8 -10 -11 -5 -3 -10 -1 -10 4 0 6 5 11 10 11 6 0 10
-2 10 -4z m380 -6 c0 -5 -4 -10 -10 -10 -5 0 -10 5 -10 10 0 6 5 10 10 10 6 0
10 -4 10 -10z m-2145 -20 c3 -5 1 -10 -4 -10 -6 0 -11 5 -11 10 0 6 2 10 4 10
3 0 8 -4 11 -10z m2635 -30 c0 -5 -4 -10 -10 -10 -5 0 -10 5 -10 10 0 6 5 10
10 10 6 0 10 -4 10 -10z m40 0 c0 -5 -4 -10 -10 -10 -5 0 -10 5 -10 10 0 6 5
10 10 10 6 0 10 -4 10 -10z m-2655 -53 c0 -26 -20 -25 -23 2 -3 16 1 22 10 19
7 -3 13 -12 13 -21z m2705 13 c0 -5 -4 -10 -10 -10 -5 0 -10 5 -10 10 0 6 5
10 10 10 6 0 10 -4 10 -10z m-586 -25 c3 -8 1 -15 -4 -15 -6 0 -10 7 -10 15 0
8 2 15 4 15 2 0 6 -7 10 -15z m356 -46 c0 -17 -21 -20 -41 -6 -14 11 -17 16
-7 19 17 6 48 -2 48 -13z m-785 1 c3 -5 1 -10 -4 -10 -6 0 -11 5 -11 10 0 6 2
10 4 10 3 0 8 -4 11 -10z m168 3 c-7 -2 -19 -2 -25 0 -7 3 -2 5 12 5 14 0 19
-2 13 -5z m651 -44 c-6 -11 -24 -2 -24 11 0 5 7 7 15 4 8 -4 12 -10 9 -15z
m-104 1 c0 -5 -4 -10 -10 -10 -5 0 -10 5 -10 10 0 6 5 10 10 10 6 0 10 -4 10
-10z m-333 -42 c-3 -7 -5 -2 -5 12 0 14 2 19 5 13 2 -7 2 -19 0 -25z m48 13
c3 -5 1 -12 -5 -16 -5 -3 -10 1 -10 9 0 18 6 21 15 7z m-507 -251 c13 -54 22
-132 25 -215 5 -150 0 -167 -80 -252 -57 -60 -79 -73 -128 -73 -42 0 -67 11
-113 51 -18 16 -43 29 -55 29 -32 1 -115 65 -123 96 -5 19 0 32 18 52 14 15
50 61 81 102 31 41 78 98 104 125 48 50 119 135 138 166 6 9 26 41 46 70 19
30 39 63 44 74 6 15 11 -2 15 -60 4 -44 16 -118 28 -165z m-1411 194 c-9 -9
-28 6 -21 18 4 6 10 6 17 -1 6 -6 8 -13 4 -17z m864 6 c36 -20 79 -140 49
-140 -5 0 -10 -10 -10 -23 0 -36 -45 -118 -57 -106 -7 7 -12 6 -16 -4 -7 -19
27 -29 59 -17 15 6 22 15 18 24 -3 8 -1 17 5 21 6 3 14 -1 17 -10 4 -10 17
-16 33 -15 45 3 51 1 51 -21 0 -11 -4 -18 -9 -14 -10 6 -41 -49 -41 -72 0 -16
-5 -16 -29 -3 -19 10 -28 -3 -47 -65 -8 -24 -15 -30 -38 -30 -21 0 -31 -6 -37
-23 -5 -14 -17 -22 -32 -22 -14 0 -30 -7 -37 -14 -18 -23 -80 -40 -93 -27 -7
7 -18 6 -37 -5 -25 -15 -28 -15 -64 10 -22 14 -44 26 -51 26 -6 0 -24 14 -40
30 -30 31 -53 38 -72 19 -13 -13 -33 -4 -33 15 0 8 6 19 14 25 8 7 12 20 9 29
-2 11 8 28 26 45 17 15 31 31 31 35 0 5 18 14 40 21 31 9 59 9 118 1 102 -15
132 -5 132 45 0 24 -5 35 -15 35 -20 0 -19 19 1 27 11 4 13 13 9 34 -4 18 -2
29 4 29 6 0 11 9 11 20 0 21 -15 27 -25 10 -3 -5 -45 -10 -93 -11 -48 0 -109
-4 -137 -8 -33 -5 -67 -2 -99 7 -50 14 -102 9 -91 -8 10 -16 -3 -44 -25 -58
-17 -10 -26 -10 -50 3 -33 17 -38 30 -16 42 8 4 15 17 17 28 3 15 14 21 39 23
19 2 43 12 53 23 12 13 33 20 65 21 26 1 65 2 87 3 62 3 107 13 150 35 31 16
59 20 138 20 54 0 107 -5 118 -10z m1549 -36 c0 -9 -7 -14 -17 -12 -25 5 -28
28 -4 28 12 0 21 -6 21 -16z m-1286 -49 c3 -8 1 -15 -4 -15 -6 0 -10 7 -10 15
0 8 2 15 4 15 2 0 6 -7 10 -15z m1286 1 c0 -3 -4 -8 -10 -11 -5 -3 -10 -1 -10
4 0 6 5 11 10 11 6 0 10 -2 10 -4z m-2527 -71 c26 -35 47 -68 47 -73 0 -5 7
-15 15 -22 8 -7 15 -26 15 -43 0 -22 12 -41 49 -78 28 -27 54 -49 59 -49 5 0
15 -7 22 -15 10 -12 9 -15 -5 -15 -10 0 -24 8 -31 18 -11 15 -18 11 -76 -45
-35 -34 -88 -82 -118 -106 -111 -88 -287 -184 -316 -173 -18 7 -18 98 0 134 7
15 16 45 18 68 7 52 27 98 96 229 64 120 86 159 102 177 40 48 51 58 63 58 6
0 33 -29 60 -65z m1997 45 c0 -5 -4 -10 -10 -10 -5 0 -10 5 -10 10 0 6 5 10
10 10 6 0 10 -4 10 -10z m-799 -43 c-1 -12 -15 -9 -19 4 -3 6 1 10 8 8 6 -3
11 -8 11 -12z m1274 3 c3 -5 1 -10 -4 -10 -6 0 -11 5 -11 10 0 6 2 10 4 10 3
0 8 -4 11 -10z m-1415 -70 c0 -5 -4 -10 -9 -10 -6 0 -13 5 -16 10 -3 6 1 10 9
10 9 0 16 -4 16 -10z m80 -10 c0 -5 -4 -10 -10 -10 -5 0 -10 5 -10 10 0 6 5
10 10 10 6 0 10 -4 10 -10z m1382 -32 c-9 -9 -12 -7 -12 12 0 19 3 21 12 12 9
-9 9 -15 0 -24z m60 0 c-7 -7 -12 -21 -12 -32 0 -27 -13 -12 -16 19 -2 20 2
25 19 25 16 0 18 -3 9 -12z m-92 -109 c0 -5 -4 -9 -10 -9 -5 0 -10 7 -10 16 0
8 5 12 10 9 6 -3 10 -10 10 -16z m-100 7 c0 -3 -4 -8 -10 -11 -5 -3 -10 -1
-10 4 0 6 5 11 10 11 6 0 10 -2 10 -4z m200 -6 c0 -5 -2 -10 -4 -10 -3 0 -8 5
-11 10 -3 6 -1 10 4 10 6 0 11 -4 11 -10z m-205 -29 c3 -5 1 -12 -5 -16 -5 -3
-10 1 -10 9 0 18 6 21 15 7z m-1335 -11 c0 -5 -2 -10 -4 -10 -3 0 -8 5 -11 10
-3 6 -1 10 4 10 6 0 11 -4 11 -10z"/>
<path d="M2760 3003 c0 -4 5 -15 10 -23 8 -13 10 -13 10 2 0 9 -4 20 -10 23
-5 3 -10 3 -10 -2z"/>
<path d="M2772 2893 c-34 -37 -19 -40 17 -4 17 17 25 31 18 30 -7 -1 -22 -12
-35 -26z"/>
<path d="M990 2160 c0 -5 5 -10 10 -10 6 0 10 5 10 10 0 6 -4 10 -10 10 -5 0
-10 -4 -10 -10z"/>
<path d="M2270 2155 c-19 -7 -49 -14 -66 -14 -38 -1 -149 -37 -189 -61 -16
-10 -45 -21 -62 -25 -18 -3 -35 -11 -38 -16 -4 -5 -15 -9 -26 -9 -11 0 -22 -6
-25 -14 -6 -16 12 -55 32 -71 7 -5 22 -35 34 -65 37 -93 63 -138 84 -144 27
-7 31 -1 18 30 -16 33 -5 74 18 74 11 0 22 -5 26 -11 3 -6 17 -8 30 -5 21 6
24 3 24 -19 0 -15 6 -25 14 -25 8 0 34 -8 58 -18 57 -24 146 -10 159 26 5 12
16 22 26 22 17 1 17 1 1 10 -11 7 -25 6 -42 -2 -20 -9 -38 -9 -77 0 -28 7 -55
10 -59 7 -5 -3 -11 -1 -15 4 -11 19 35 34 66 21 57 -24 115 2 138 63 12 32 30
35 54 7 22 -26 22 -59 0 -76 -10 -7 -14 -16 -10 -20 4 -5 18 5 30 20 21 26 29
29 89 30 50 1 71 6 87 20 49 45 7 92 -89 101 -88 7 -100 10 -135 24 -16 7 -42
15 -58 18 -36 7 -43 20 -16 28 39 13 133 27 182 29 26 0 47 5 47 11 0 22 -66
53 -123 57 -55 4 -80 -3 -57 -17 18 -11 10 -25 -15 -25 -15 0 -28 7 -32 18
-13 34 -29 38 -83 17z"/>
<path d="M2602 2084 c1 -9 9 -19 16 -22 9 -3 13 2 10 14 -1 9 -9 19 -16 22 -9
3 -13 -2 -10 -14z"/>
<path d="M1669 1417 c-21 -15 -69 -135 -69 -170 0 -14 -7 -32 -15 -41 -18 -18
-19 -36 -2 -36 18 0 57 54 57 80 0 11 14 52 32 90 31 71 30 101 -3 77z"/>
<path d="M2110 1406 c0 -7 7 -19 14 -26 8 -6 16 -30 18 -53 3 -48 17 -55 31
-14 7 23 4 35 -18 68 -28 40 -45 50 -45 25z"/>
<path d="M1960 1284 c-27 -31 -73 -42 -136 -31 -101 17 -109 16 -112 -18 -2
-16 -8 -35 -13 -41 -9 -10 19 -74 61 -141 21 -32 58 -38 84 -14 21 20 66 20
66 0 0 -5 6 -9 14 -9 23 0 46 41 46 82 0 37 1 38 38 38 78 0 151 86 90 106
-13 4 -29 15 -36 25 -17 24 -84 26 -102 3z"/>
<path d="M1486 1063 c-3 -10 -9 -24 -12 -30 -3 -7 1 -13 9 -13 8 0 17 8 21 18
3 9 9 23 12 30 3 6 -1 12 -9 12 -8 0 -17 -8 -21 -17z"/>
<path d="M1490 985 c1 -26 2 -28 11 -12 8 14 8 22 0 30 -8 8 -11 3 -11 -18z"/>
<path d="M2567 951 c3 -13 -3 -23 -19 -31 -33 -18 -33 -19 -12 -35 27 -21 35
-18 28 9 -4 19 -1 26 15 31 25 8 28 30 5 39 -22 9 -23 8 -17 -13z"/>
<path d="M2490 940 c0 -5 5 -10 10 -10 6 0 10 5 10 10 0 6 -4 10 -10 10 -5 0
-10 -4 -10 -10z"/>
<path d="M2490 900 c0 -5 5 -10 10 -10 6 0 10 5 10 10 0 6 -4 10 -10 10 -5 0
-10 -4 -10 -10z"/>
<path d="M2458 893 c7 -3 16 -2 19 1 4 3 -2 6 -13 5 -11 0 -14 -3 -6 -6z"/>
<path d="M2818 2774 c-9 -14 7 -50 16 -36 4 7 3 19 -2 28 -5 9 -12 13 -14 8z"/>
</g>
</svg>
